<mxfile host="65bd71144e">
    <diagram id="PvVgZ--v0Cs8r8XKijPn" name="Page-1">
        <mxGraphModel dx="1881" dy="1014" grid="1" gridSize="10" guides="1" tooltips="1" connect="1" arrows="1" fold="1" page="1" pageScale="1" pageWidth="2500" pageHeight="1500" math="0" shadow="0">
            <root>
                <mxCell id="0"/>
                <mxCell id="1" parent="0"/>
                <mxCell id="4" value="&lt;font color=&quot;#92aa83&quot; style=&quot;font-size: 31px;&quot;&gt;Logs&lt;/font&gt;" style="rounded=0;whiteSpace=wrap;html=1;horizontal=0;fontSize=31;strokeColor=none;fillColor=#f1f7ee;" vertex="1" parent="1">
                    <mxGeometry x="407.18203140625" y="408.38800013920957" width="116.24875" height="438.61864711546264" as="geometry"/>
                </mxCell>
                <mxCell id="5" value="Metrics" style="rounded=0;whiteSpace=wrap;html=1;verticalAlign=middle;horizontal=0;fontSize=31;strokeColor=none;fillColor=#f1f7ee;fontColor=#92aa83;" vertex="1" parent="1">
                    <mxGeometry x="726.880625" y="408.38800013920957" width="116.24875" height="438.61864711546264" as="geometry"/>
                </mxCell>
                <mxCell id="6" value="Traces" style="rounded=0;whiteSpace=wrap;html=1;horizontal=0;fontSize=31;strokeColor=none;fillColor=#f1f7ee;fontColor=#92aa83;" vertex="1" parent="1">
                    <mxGeometry x="1046.55015640625" y="408.38800013920957" width="116.24875" height="438.61864711546264" as="geometry"/>
                </mxCell>
                <mxCell id="7" value="&lt;font style=&quot;&quot; color=&quot;#f1f7ee&quot;&gt;&lt;font style=&quot;font-size: 30px;&quot;&gt;Container Orchestration&lt;br&gt;&lt;/font&gt;&lt;font style=&quot;font-size: 20px;&quot;&gt;- Kubernetes -&lt;/font&gt;&lt;/font&gt;" style="rounded=0;whiteSpace=wrap;html=1;strokeColor=none;fillColor=#92aa83;" vertex="1" parent="1">
                    <mxGeometry x="320.01" y="847.0066472546722" width="929.99" height="92.99335274532777" as="geometry"/>
                </mxCell>
                <mxCell id="11" value="" style="group" vertex="1" connectable="0" parent="1">
                    <mxGeometry x="327.268281328125" y="275.99" width="915.4589062499999" height="137.52166981821563" as="geometry"/>
                </mxCell>
                <mxCell id="2" value="" style="triangle;whiteSpace=wrap;html=1;rotation=-90;horizontal=1;strokeColor=none;fillColor=#92aa83;" vertex="1" parent="11">
                    <mxGeometry x="393.262255703125" y="-419.454267003863" width="128.93439484375" height="976.4302038259416" as="geometry"/>
                </mxCell>
                <mxCell id="9" value="&lt;font style=&quot;&quot; color=&quot;#f1f7ee&quot;&gt;&lt;font style=&quot;font-size: 30px;&quot;&gt;Observability Frontend&lt;br&gt;&lt;/font&gt;&lt;font style=&quot;font-size: 20px;&quot;&gt;- Grafana -&lt;/font&gt;&lt;/font&gt;" style="text;strokeColor=none;align=center;fillColor=none;html=1;verticalAlign=middle;whiteSpace=wrap;rounded=0;fontSize=10;" vertex="1" parent="11">
                    <mxGeometry x="288.17822940104156" y="54.23837298871247" width="339.10164016493053" height="77.49446062110647" as="geometry"/>
                </mxCell>
            </root>
        </mxGraphModel>
    </diagram>
</mxfile>